<?xml version="1.0" encoding="UTF-8"?>
<!-- Created with Inkscape (http://www.inkscape.org/) -->
<svg width="151.75" height="52.61" version="1.1" viewBox="0 0 40.149 13.92" xmlns="http://www.w3.org/2000/svg">
 <g transform="translate(-22.811 -20.875)">
  <g transform="matrix(.067446 0 0 .067648 1.7808 -.92917)">
   <circle cx="871.46" cy="357.94" r="35.626" fill="#fff"/>
   <path d="m847.24 353.18c-2.629 0-4.758 2.129-4.758 4.758 0 2.626 2.129 4.756 4.758 4.756 2.627 0 4.756-2.129 4.756-4.756 0-2.629-2.129-4.758-4.756-4.758zm33.961 21.618c-2.275 1.314-3.055 4.222-1.742 6.495 1.314 2.275 4.221 3.055 6.496 1.741 2.275-1.312 3.055-4.22 1.742-6.495-1.312-2.274-4.222-3.054-6.496-1.741zm-23.629-16.861c0-4.7 2.334-8.854 5.906-11.368l-3.477-5.825c-4.162 2.782-7.258 7.033-8.543 12.011 1.5 1.225 2.461 3.09 2.461 5.181 0 2.089-0.961 3.954-2.461 5.18 1.283 4.98 4.381 9.23 8.543 12.012l3.477-5.826c-3.572-2.512-5.906-6.664-5.906-11.365zm13.893-13.894c7.258 0 13.213 5.565 13.838 12.662l6.777-0.1c-0.332-5.239-2.621-9.943-6.139-13.402-1.809 0.684-3.896 0.579-5.703-0.462-1.809-1.044-2.943-2.805-3.254-4.716-1.758-0.485-3.605-0.75-5.52-0.75-3.289 0-6.396 0.772-9.156 2.139l3.305 5.922c1.778-0.828 3.76-1.293 5.852-1.293zm0 27.788c-2.092 0-4.074-0.465-5.852-1.292l-3.305 5.922c2.76 1.368 5.867 2.14 9.156 2.14 1.914 0 3.762-0.266 5.52-0.752 0.311-1.911 1.445-3.67 3.254-4.716 1.807-1.042 3.895-1.145 5.703-0.462 3.518-3.458 5.807-8.162 6.139-13.401l-6.779-0.1c-0.623 7.097-6.578 12.661-13.836 12.661zm9.734-30.757c2.275 1.314 5.184 0.536 6.496-1.739s0.535-5.182-1.74-6.497c-2.275-1.312-5.182-0.533-6.496 1.743-1.312 2.273-0.533 5.181 1.74 6.493z" fill="#e95420"/>
   <g fill="#fff">
    <path d="m383.06 451.42c-3.621 0.906-8.398 1.866-14.335 2.884-5.938 1.019-12.809 1.526-20.613 1.526-6.785 0-12.498-0.991-17.134-2.967-4.639-1.978-8.372-4.778-11.197-8.399-2.828-3.619-4.864-7.889-6.107-12.809-1.247-4.92-1.867-10.374-1.867-16.37v-49.536h15.777v46.143c0 10.746 1.697 18.435 5.09 23.072 3.392 4.639 9.103 6.957 17.134 6.957 1.696 0 3.448-0.059 5.259-0.172 1.808-0.111 3.504-0.254 5.089-0.424 1.583-0.17 3.025-0.34 4.326-0.508 1.298-0.17 2.231-0.365 2.799-0.594v-74.474h15.777v85.671z"/>
    <path d="m421.57 369.65c1.921-1.242 4.835-2.544 8.737-3.901s8.397-2.036 13.486-2.036c6.333 0 11.96 1.131 16.88 3.392 4.919 2.264 9.076 5.429 12.468 9.501 3.394 4.071 5.964 8.935 7.72 14.589 1.752 5.656 2.629 11.875 2.629 18.66 0 7.126-1.047 13.546-3.139 19.256-2.094 5.711-5.063 10.545-8.907 14.504-3.846 3.96-8.482 7.014-13.911 9.162-5.428 2.146-11.536 3.222-18.322 3.222-7.353 0-13.855-0.508-19.51-1.526-5.656-1.018-10.292-2.035-13.91-3.054v-126.39l15.777-2.713v47.33zm0 70.574c1.583 0.453 3.817 0.877 6.701 1.271 2.884 0.396 6.473 0.596 10.772 0.596 8.482 0 15.268-2.801 20.357-8.398 5.089-5.6 7.634-13.544 7.634-23.836 0-4.521-0.454-8.763-1.357-12.724-0.907-3.957-2.375-7.378-4.411-10.262s-4.666-5.146-7.889-6.787c-3.224-1.638-7.099-2.459-11.621-2.459-4.3 0-8.257 0.737-11.875 2.205-3.621 1.472-6.391 2.999-8.312 4.581v55.813z"/>
    <path d="m571.54 451.42c-3.623 0.906-8.398 1.866-14.337 2.884-5.938 1.019-12.808 1.526-20.611 1.526-6.786 0-12.499-0.991-17.135-2.967-4.64-1.978-8.372-4.778-11.196-8.399-2.828-3.619-4.863-7.889-6.107-12.809-1.246-4.92-1.867-10.374-1.867-16.37v-49.536h15.778v46.143c0 10.746 1.696 18.435 5.089 23.072 3.393 4.639 9.103 6.957 17.135 6.957 1.696 0 3.449-0.059 5.259-0.172 1.808-0.111 3.505-0.254 5.089-0.424 1.583-0.17 3.025-0.34 4.327-0.508 1.298-0.17 2.231-0.365 2.798-0.594v-74.474h15.779v85.671z"/>
    <path d="m594.26 368.29c3.62-0.905 8.425-1.867 14.421-2.885 5.993-1.017 12.892-1.526 20.696-1.526 7.012 0 12.834 0.991 17.473 2.968 4.637 1.98 8.34 4.75 11.111 8.313s4.721 7.834 5.854 12.809c1.129 4.978 1.697 10.462 1.697 16.456v49.535h-15.777v-46.144c0-5.427-0.369-10.063-1.104-13.909-0.736-3.843-1.949-6.956-3.646-9.33-1.697-2.376-3.959-4.1-6.785-5.175-2.83-1.074-6.336-1.611-10.518-1.611-1.697 0-3.453 0.058-5.26 0.169-1.811 0.114-3.535 0.256-5.174 0.426-1.641 0.168-3.113 0.368-4.41 0.593-1.303 0.228-2.236 0.397-2.8 0.508v74.474h-15.778z"/>
    <path d="m701.99 365.75h33.42v13.232h-33.42v40.714c0 4.41 0.338 8.059 1.018 10.941 0.678 2.885 1.695 5.146 3.053 6.785 1.357 1.643 3.053 2.801 5.09 3.479 2.035 0.678 4.41 1.02 7.125 1.02 4.861 0 8.709-0.537 11.535-1.613 2.824-1.072 4.75-1.836 5.768-2.289l3.393 12.894c-1.584 0.792-4.385 1.811-8.396 3.052-4.016 1.244-8.566 1.866-13.658 1.866-5.992 0-10.939-0.762-14.842-2.29-3.902-1.526-7.041-3.816-9.414-6.869-2.377-3.055-4.047-6.814-5.006-11.283-0.963-4.467-1.443-9.641-1.443-15.522v-78.715l15.779-2.714v27.312z"/>
    <path d="m821.25 451.42c-3.619 0.906-8.398 1.866-14.334 2.884-5.939 1.019-12.809 1.526-20.613 1.526-6.785 0-12.498-0.991-17.133-2.967-4.641-1.978-8.371-4.778-11.197-8.399-2.828-3.619-4.863-7.889-6.107-12.809-1.246-4.92-1.867-10.374-1.867-16.37v-49.536h15.779v46.143c0 10.746 1.695 18.435 5.088 23.072 3.393 4.639 9.104 6.957 17.135 6.957 1.697 0 3.447-0.059 5.26-0.172 1.807-0.111 3.504-0.254 5.088-0.424s3.025-0.34 4.326-0.508c1.299-0.17 2.232-0.365 2.799-0.594v-74.474h15.777v85.671z"/>
   </g>
   <g fill="#fff">
    <path d="m318.71 495.52c0.547-0.417 1.425-0.861 2.632-1.329 1.207-0.466 2.634-0.7 4.275-0.7 1.804 0 3.406 0.324 4.808 0.968 1.4 0.645 2.584 1.546 3.55 2.704 0.965 1.16 1.698 2.537 2.197 4.131 0.499 1.593 0.749 3.34 0.749 5.242 0 2.027-0.297 3.848-0.893 5.458-0.597 1.612-1.434 2.979-2.512 4.104-1.079 1.129-2.366 1.991-3.865 2.586-1.498 0.595-3.164 0.893-5 0.893-2.222 0-4.058-0.144-5.508-0.433-1.449-0.292-2.64-0.598-3.574-0.917v-36.137l3.141-0.58zm0 20.531c0.483 0.161 1.2 0.314 2.149 0.459 0.949 0.144 2.199 0.219 3.744 0.219 2.705 0 4.879-0.879 6.522-2.635 1.644-1.755 2.464-4.274 2.464-7.559 0-1.386-0.146-2.698-0.435-3.938-0.291-1.239-0.758-2.318-1.401-3.235-0.645-0.919-1.49-1.651-2.537-2.199-1.047-0.547-2.341-0.823-3.889-0.823-0.741 0-1.45 0.074-2.125 0.22s-1.304 0.331-1.884 0.554c-0.58 0.227-1.088 0.47-1.522 0.727-0.435 0.258-0.797 0.5-1.086 0.726z"/>
    <path d="m349.48 519.53c-1.048-1.968-2.065-4.018-3.051-6.14-0.986-2.125-1.907-4.275-2.764-6.444-0.857-2.173-1.641-4.348-2.351-6.52-0.71-2.173-1.322-4.308-1.833-6.403h3.333c0.353 1.547 0.804 3.214 1.35 5.002 0.547 1.787 1.167 3.63 1.858 5.532 0.692 1.9 1.455 3.85 2.29 5.847 0.838 1.996 1.749 3.96 2.739 5.889 0.717-1.987 1.352-3.869 1.906-5.639 0.552-1.77 1.066-3.53 1.538-5.286 0.472-1.754 0.928-3.547 1.368-5.381 0.438-1.835 0.887-3.822 1.346-5.964h3.142c-1.048 4.675-2.229 9.22-3.536 13.637-1.307 4.416-2.735 8.453-4.285 12.112-0.611 1.449-1.242 2.697-1.889 3.743-0.647 1.047-1.365 1.909-2.158 2.586-0.792 0.676-1.714 1.174-2.765 1.498-1.051 0.32-2.288 0.481-3.71 0.481-0.81 0-1.545-0.096-2.208-0.288-0.662-0.193-1.073-0.339-1.235-0.437l0.627-2.609c0.129 0.097 0.491 0.233 1.09 0.412 0.597 0.175 1.219 0.266 1.864 0.266 0.904 0 1.72-0.098 2.446-0.291 0.727-0.192 1.38-0.522 1.962-0.99 0.581-0.466 1.105-1.069 1.573-1.812 0.466-0.738 0.918-1.673 1.353-2.801z"/>
    <path d="m390.68 519.72c-2.158 0-4.162-0.389-6.015-1.16-1.852-0.771-3.462-1.897-4.832-3.381-1.368-1.481-2.447-3.309-3.236-5.483s-1.183-4.662-1.183-7.464c0-2.803 0.426-5.288 1.28-7.464 0.853-2.174 1.988-4.002 3.406-5.482 1.416-1.48 3.059-2.602 4.926-3.358 1.869-0.757 3.817-1.134 5.846-1.134 1.255 0 2.4 0.079 3.43 0.24s1.933 0.363 2.705 0.604c0.774 0.241 1.434 0.484 1.982 0.726 0.547 0.241 0.966 0.46 1.255 0.651l-1.062 2.851c-0.805-0.483-1.829-0.956-3.068-1.425-1.239-0.468-2.778-0.701-4.613-0.701-2.094 0-3.922 0.356-5.483 1.063-1.563 0.71-2.874 1.707-3.938 2.995-1.062 1.289-1.859 2.819-2.39 4.589-0.532 1.772-0.797 3.736-0.797 5.894 0 2.222 0.265 4.229 0.797 6.016 0.531 1.787 1.311 3.308 2.342 4.565 1.03 1.255 2.294 2.221 3.792 2.896 1.499 0.677 3.213 1.016 5.145 1.016 2.125 0 3.905-0.201 5.337-0.604 1.433-0.403 2.521-0.813 3.262-1.232l0.917 2.802c-0.226 0.161-0.612 0.348-1.16 0.556-0.546 0.208-1.24 0.427-2.076 0.652-0.838 0.225-1.805 0.41-2.899 0.557-1.093 0.141-2.317 0.215-3.67 0.215z"/>
    <path d="m413.41 493.44c1.643 0 3.035 0.235 4.179 0.699 1.144 0.468 2.069 1.11 2.777 1.933 0.708 0.821 1.225 1.796 1.546 2.923 0.322 1.127 0.483 2.352 0.483 3.671v15.75c-0.322 0.094-0.79 0.2-1.4 0.313-0.612 0.113-1.321 0.233-2.126 0.362-0.805 0.128-1.699 0.233-2.681 0.312-0.983 0.082-1.99 0.121-3.019 0.121-1.322 0-2.538-0.146-3.648-0.434-1.111-0.29-2.077-0.748-2.899-1.378-0.821-0.628-1.465-1.434-1.931-2.413-0.468-0.982-0.7-2.183-0.7-3.601 0-1.354 0.257-2.512 0.772-3.479 0.515-0.966 1.24-1.763 2.174-2.391 0.934-0.627 2.045-1.087 3.333-1.376 1.289-0.289 2.689-0.436 4.204-0.436 0.451 0 0.925 0.024 1.425 0.075 0.499 0.046 0.982 0.111 1.449 0.189 0.467 0.081 0.87 0.163 1.208 0.243 0.337 0.08 0.571 0.153 0.7 0.217v-1.545c0-0.87-0.065-1.716-0.194-2.537-0.128-0.82-0.41-1.562-0.845-2.222s-1.047-1.19-1.835-1.595c-0.79-0.402-1.83-0.603-3.117-0.603-1.836 0-3.205 0.128-4.106 0.386-0.901 0.259-1.562 0.466-1.98 0.629l-0.435-2.753c0.547-0.261 1.393-0.5 2.536-0.725 1.142-0.223 2.519-0.335 4.13-0.335zm0.291 23.285c1.224 0 2.293-0.04 3.212-0.123 0.918-0.08 1.699-0.185 2.343-0.314v-8.792c-0.354-0.159-0.918-0.328-1.691-0.505-0.773-0.179-1.836-0.269-3.188-0.269-0.774 0-1.579 0.059-2.415 0.172-0.838 0.113-1.611 0.354-2.32 0.724-0.709 0.371-1.288 0.879-1.739 1.521-0.451 0.646-0.677 1.498-0.677 2.562 0 0.934 0.153 1.723 0.459 2.367 0.307 0.645 0.741 1.16 1.304 1.545 0.564 0.389 1.24 0.668 2.029 0.846 0.791 0.177 1.684 0.266 2.683 0.266z"/>
    <path d="m429.56 494.89c0.934-0.256 2.19-0.545 3.769-0.869 1.577-0.32 3.51-0.483 5.797-0.483 1.9 0 3.486 0.276 4.759 0.821 1.271 0.547 2.286 1.328 3.043 2.345 0.756 1.013 1.295 2.229 1.619 3.646 0.321 1.418 0.482 2.979 0.482 4.686v13.962h-3.139v-12.948c0-1.771-0.121-3.267-0.362-4.491-0.242-1.225-0.645-2.222-1.208-2.994-0.564-0.774-1.305-1.329-2.223-1.668-0.917-0.338-2.07-0.508-3.455-0.508-1.482 0-2.762 0.082-3.84 0.242-1.08 0.161-1.779 0.308-2.101 0.435v21.933h-3.141z"/>
    <path d="m477.6 506.54c0 1.965-0.284 3.752-0.846 5.361-0.564 1.609-1.353 2.979-2.368 4.107-1.015 1.125-2.215 2.004-3.599 2.631-1.384 0.629-2.915 0.941-4.589 0.941-1.676 0-3.205-0.312-4.589-0.941-1.386-0.627-2.585-1.506-3.599-2.631-1.014-1.128-1.804-2.498-2.367-4.107-0.564-1.609-0.846-3.396-0.846-5.361 0-1.964 0.281-3.752 0.846-5.364 0.563-1.609 1.354-2.985 2.367-4.131 1.014-1.141 2.213-2.028 3.599-2.655 1.385-0.627 2.914-0.941 4.589-0.941 1.674 0 3.205 0.314 4.589 0.941s2.584 1.515 3.599 2.655c1.015 1.146 1.804 2.521 2.368 4.131 0.562 1.612 0.846 3.4 0.846 5.364zm-3.333 0c0-3.125-0.726-5.612-2.175-7.466-1.448-1.85-3.414-2.778-5.893-2.778-2.48 0-4.445 0.929-5.895 2.778-1.448 1.854-2.173 4.341-2.173 7.466 0 3.123 0.725 5.603 2.173 7.438 1.45 1.836 3.414 2.755 5.895 2.755 2.479 0 4.445-0.919 5.893-2.755 1.449-1.835 2.175-4.315 2.175-7.438z"/>
    <path d="m483.64 494.89c0.934-0.256 2.19-0.545 3.768-0.869 1.579-0.32 3.511-0.483 5.798-0.483 1.9 0 3.486 0.276 4.76 0.821 1.27 0.547 2.283 1.328 3.041 2.345 0.757 1.013 1.297 2.229 1.619 3.646 0.321 1.418 0.482 2.979 0.482 4.686v13.962h-3.141v-12.948c0-1.771-0.121-3.267-0.361-4.491-0.242-1.225-0.645-2.222-1.207-2.994-0.564-0.774-1.306-1.329-2.223-1.668-0.918-0.338-2.07-0.508-3.455-0.508-1.482 0-2.761 0.082-3.841 0.242-1.078 0.161-1.779 0.308-2.101 0.435v21.933h-3.14v-24.109z"/>
    <path d="m514.02 486.49c0 0.74-0.225 1.326-0.675 1.764-0.451 0.433-1 0.651-1.644 0.651-0.645 0-1.191-0.219-1.642-0.651-0.452-0.438-0.677-1.023-0.677-1.764 0-0.742 0.225-1.331 0.677-1.764 0.45-0.435 0.997-0.651 1.642-0.651 0.644 0 1.192 0.217 1.644 0.651 0.45 0.433 0.675 1.022 0.675 1.764zm-0.724 32.511h-3.14v-24.977h3.14z"/>
    <path d="m531.02 519.53c-1.933 0-3.64-0.306-5.12-0.918-1.482-0.61-2.714-1.489-3.697-2.631-0.981-1.145-1.729-2.513-2.246-4.106-0.515-1.596-0.772-3.357-0.772-5.292 0-1.964 0.266-3.75 0.798-5.361 0.532-1.609 1.296-2.995 2.295-4.154 0.998-1.158 2.204-2.054 3.623-2.681 1.415-0.627 3.011-0.941 4.781-0.941 1.354 0 2.617 0.111 3.793 0.339 1.175 0.225 2.084 0.515 2.729 0.867l-0.821 2.705c-0.644-0.321-1.371-0.579-2.174-0.771-0.807-0.194-1.884-0.292-3.237-0.292-2.771 0-4.871 0.896-6.304 2.683-1.434 1.789-2.15 4.324-2.15 7.607 0 1.483 0.162 2.844 0.483 4.083 0.322 1.24 0.845 2.302 1.57 3.188 0.726 0.886 1.659 1.578 2.802 2.077s2.537 0.751 4.18 0.751c1.352 0 2.487-0.155 3.404-0.461 0.919-0.306 1.586-0.571 2.005-0.798l0.678 2.708c-0.58 0.322-1.491 0.636-2.731 0.939-1.241 0.306-2.537 0.459-3.889 0.459z"/>
    <path d="m550.29 493.44c1.642 0 3.034 0.235 4.178 0.699 1.141 0.468 2.068 1.11 2.777 1.933 0.708 0.821 1.225 1.796 1.546 2.923s0.482 2.352 0.482 3.671v15.75c-0.321 0.094-0.79 0.2-1.4 0.313-0.612 0.113-1.321 0.233-2.126 0.362-0.806 0.128-1.699 0.233-2.682 0.312-0.982 0.082-1.988 0.121-3.02 0.121-1.32 0-2.535-0.146-3.646-0.434-1.111-0.29-2.078-0.748-2.897-1.378-0.822-0.628-1.468-1.434-1.934-2.413-0.468-0.982-0.7-2.183-0.7-3.601 0-1.354 0.258-2.512 0.773-3.479 0.514-0.966 1.238-1.763 2.174-2.391 0.934-0.627 2.047-1.087 3.332-1.376 1.289-0.289 2.689-0.436 4.205-0.436 0.449 0 0.924 0.024 1.424 0.075 0.499 0.046 0.982 0.111 1.449 0.189 0.466 0.081 0.869 0.163 1.207 0.243 0.339 0.08 0.572 0.153 0.701 0.217v-1.545c0-0.87-0.065-1.716-0.193-2.537-0.129-0.82-0.41-1.562-0.846-2.222-0.435-0.66-1.047-1.19-1.836-1.595-0.788-0.402-1.828-0.603-3.116-0.603-1.835 0-3.204 0.128-4.104 0.386-0.902 0.259-1.562 0.466-1.982 0.629l-0.434-2.753c0.547-0.261 1.393-0.5 2.536-0.725 1.143-0.223 2.519-0.335 4.132-0.335zm0.287 23.285c1.225 0 2.295-0.04 3.214-0.123 0.917-0.08 1.698-0.185 2.343-0.314v-8.792c-0.354-0.159-0.918-0.328-1.691-0.505-0.771-0.179-1.835-0.269-3.188-0.269-0.773 0-1.577 0.059-2.416 0.172-0.838 0.113-1.61 0.354-2.318 0.724-0.709 0.371-1.289 0.879-1.74 1.521-0.451 0.646-0.676 1.498-0.676 2.562 0 0.934 0.152 1.723 0.459 2.367 0.306 0.645 0.74 1.16 1.305 1.545 0.562 0.389 1.24 0.668 2.029 0.846 0.788 0.177 1.681 0.266 2.679 0.266z"/>
    <path d="m572.71 519.43c-1.062-0.032-1.988-0.169-2.777-0.411-0.789-0.24-1.448-0.61-1.98-1.111-0.531-0.497-0.934-1.142-1.208-1.931-0.274-0.79-0.41-1.781-0.41-2.974v-30.916l3.14-0.58v31.401c0 0.772 0.072 1.394 0.217 1.86 0.146 0.468 0.363 0.836 0.653 1.111 0.289 0.272 0.669 0.476 1.134 0.604 0.467 0.129 1.023 0.242 1.668 0.337z"/>
    <path d="m597.3 493.44c1.643 0 3.035 0.235 4.178 0.699 1.143 0.468 2.069 1.11 2.778 1.933 0.707 0.821 1.221 1.796 1.546 2.923 0.321 1.127 0.481 2.352 0.481 3.671v15.75c-0.322 0.094-0.792 0.2-1.4 0.313-0.611 0.113-1.32 0.233-2.124 0.362-0.807 0.128-1.7 0.233-2.682 0.312-0.984 0.082-1.988 0.121-3.021 0.121-1.321 0-2.536-0.146-3.646-0.434-1.111-0.29-2.077-0.748-2.899-1.378-0.82-0.628-1.466-1.434-1.932-2.413-0.468-0.982-0.701-2.183-0.701-3.601 0-1.354 0.259-2.512 0.773-3.479 0.516-0.966 1.24-1.763 2.174-2.391 0.934-0.627 2.045-1.087 3.332-1.376 1.289-0.289 2.688-0.436 4.204-0.436 0.451 0 0.926 0.024 1.426 0.075 0.498 0.046 0.981 0.111 1.448 0.189 0.468 0.081 0.87 0.163 1.208 0.243s0.57 0.153 0.701 0.217v-1.545c0-0.87-0.067-1.716-0.193-2.537-0.128-0.82-0.41-1.562-0.846-2.222s-1.047-1.19-1.836-1.595c-0.789-0.402-1.828-0.603-3.115-0.603-1.836 0-3.206 0.128-4.106 0.386-0.903 0.259-1.563 0.466-1.982 0.629l-0.434-2.753c0.548-0.261 1.394-0.5 2.537-0.725 1.142-0.223 2.517-0.335 4.131-0.335zm0.289 23.285c1.224 0 2.294-0.04 3.213-0.123 0.918-0.08 1.698-0.185 2.343-0.314v-8.792c-0.355-0.159-0.918-0.328-1.692-0.505-0.772-0.179-1.835-0.269-3.188-0.269-0.773 0-1.579 0.059-2.416 0.172-0.838 0.113-1.611 0.354-2.318 0.724-0.709 0.371-1.289 0.879-1.738 1.521-0.451 0.646-0.678 1.498-0.678 2.562 0 0.934 0.154 1.723 0.461 2.367 0.305 0.645 0.74 1.16 1.304 1.545 0.563 0.389 1.24 0.668 2.027 0.846 0.787 0.177 1.684 0.266 2.682 0.266z"/>
    <path d="m613.46 494.89c0.936-0.256 2.192-0.545 3.77-0.869 1.577-0.32 3.51-0.483 5.796-0.483 1.899 0 3.487 0.276 4.759 0.821 1.271 0.547 2.286 1.328 3.043 2.345 0.758 1.013 1.297 2.229 1.621 3.646 0.319 1.418 0.48 2.979 0.48 4.686v13.962h-3.139v-12.948c0-1.771-0.119-3.267-0.364-4.491-0.239-1.225-0.643-2.222-1.205-2.994-0.565-0.774-1.306-1.329-2.224-1.668-0.918-0.338-2.07-0.508-3.452-0.508-1.483 0-2.764 0.082-3.844 0.242-1.078 0.161-1.777 0.308-2.101 0.435v21.933h-3.141v-24.109z"/>
    <path d="m660.05 518.23c-0.935 0.319-2.126 0.625-3.577 0.917-1.446 0.289-3.284 0.433-5.507 0.433-1.834 0-3.5-0.298-4.997-0.893-1.498-0.595-2.787-1.457-3.866-2.586-1.078-1.125-1.915-2.492-2.513-4.104-0.596-1.61-0.892-3.431-0.892-5.458 0-1.902 0.247-3.649 0.747-5.242 0.501-1.594 1.233-2.971 2.198-4.131 0.966-1.158 2.149-2.06 3.552-2.704 1.4-0.644 3.003-0.968 4.805-0.968 1.644 0 3.067 0.234 4.277 0.7 1.206 0.468 2.083 0.912 2.634 1.329v-13.43l3.139-0.58zm-3.139-19.663c-0.292-0.226-0.653-0.468-1.089-0.726-0.435-0.257-0.941-0.5-1.52-0.727-0.582-0.223-1.208-0.408-1.885-0.554-0.679-0.146-1.385-0.22-2.126-0.22-1.545 0-2.844 0.276-3.889 0.823-1.05 0.548-1.895 1.28-2.537 2.199-0.646 0.917-1.109 1.996-1.4 3.235-0.292 1.24-0.436 2.553-0.436 3.938 0 3.284 0.824 5.804 2.464 7.559 1.643 1.756 3.817 2.635 6.523 2.635 1.545 0 2.793-0.075 3.742-0.219 0.948-0.145 1.666-0.298 2.151-0.459v-17.484z"/>
    <path d="m688.55 481.51c1.354 0 2.455 0.105 3.31 0.314 0.854 0.21 1.408 0.396 1.669 0.555l-0.631 2.707c-0.354-0.162-0.876-0.329-1.57-0.509-0.693-0.176-1.57-0.265-2.632-0.265-2.222 0-3.81 0.562-4.759 1.689-0.95 1.128-1.424 2.934-1.424 5.411v2.608h10.046v2.657h-10.046v22.319h-3.143v-27.683c0-3.252 0.751-5.698 2.247-7.341 1.502-1.64 3.809-2.462 6.933-2.462z"/>
    <path d="m705.6 493.54c1.032 0 2.006 0.081 2.924 0.244 0.918 0.16 1.555 0.321 1.907 0.48l-0.627 2.707c-0.258-0.13-0.781-0.266-1.569-0.411-0.789-0.146-1.829-0.22-3.116-0.22-1.354 0-2.44 0.099-3.26 0.292-0.823 0.193-1.36 0.354-1.62 0.481v21.886h-3.139v-23.815c0.805-0.354 1.915-0.717 3.331-1.09 1.42-0.367 3.142-0.554 5.169-0.554z"/>
    <path d="m718.73 486.49c0 0.74-0.225 1.326-0.677 1.764-0.451 0.433-0.998 0.651-1.641 0.651-0.644 0-1.193-0.219-1.645-0.651-0.449-0.438-0.676-1.023-0.676-1.764 0-0.742 0.227-1.331 0.676-1.764 0.451-0.435 1.001-0.651 1.645-0.651 0.643 0 1.189 0.217 1.641 0.651 0.452 0.433 0.677 1.022 0.677 1.764zm-0.724 32.511h-3.142v-24.977h3.142z"/>
    <path d="m724.01 506.49c0-2.19 0.315-4.098 0.943-5.723 0.626-1.627 1.448-2.989 2.464-4.084 1.016-1.096 2.175-1.908 3.479-2.44 1.305-0.529 2.648-0.795 4.032-0.795 3.062 0 5.501 0.999 7.319 2.994 1.82 1.998 2.729 5.071 2.729 9.227 0 0.259-8e-3 0.517-0.022 0.774-0.018 0.255-0.04 0.498-0.072 0.724h-17.538c0.098 3.059 0.854 5.411 2.272 7.053 1.418 1.643 3.671 2.466 6.763 2.466 1.706 0 3.058-0.163 4.058-0.485 0.998-0.32 1.723-0.597 2.172-0.821l0.583 2.707c-0.451 0.258-1.298 0.562-2.538 0.917-1.24 0.354-2.695 0.53-4.371 0.53-2.191 0-4.06-0.322-5.604-0.966-1.548-0.645-2.819-1.545-3.816-2.705-1.001-1.16-1.724-2.537-2.175-4.129-0.452-1.595-0.678-3.341-0.678-5.244zm17.729-1.981c-0.063-2.608-0.675-4.638-1.834-6.087-1.16-1.447-2.804-2.172-4.927-2.172-1.128 0-2.136 0.226-3.021 0.677-0.884 0.449-1.658 1.056-2.317 1.81-0.661 0.759-1.177 1.636-1.546 2.634-0.371 0.999-0.589 2.045-0.652 3.139h14.297z"/>
    <path d="m750.88 494.89c0.935-0.256 2.189-0.545 3.771-0.869 1.574-0.32 3.505-0.483 5.793-0.483 1.9 0 3.484 0.276 4.759 0.821 1.272 0.547 2.288 1.328 3.043 2.345 0.758 1.013 1.299 2.229 1.619 3.646 0.321 1.418 0.482 2.979 0.482 4.686v13.962h-3.139v-12.948c0-1.771-0.122-3.267-0.364-4.491-0.241-1.225-0.645-2.222-1.207-2.994-0.562-0.774-1.302-1.329-2.223-1.668-0.917-0.338-2.069-0.508-3.454-0.508-1.481 0-2.759 0.082-3.84 0.242-1.081 0.161-1.78 0.308-2.1 0.435v21.933h-3.142v-24.109z"/>
    <path d="m797.47 518.23c-0.933 0.319-2.125 0.625-3.573 0.917-1.45 0.289-3.284 0.433-5.509 0.433-1.833 0-3.502-0.298-5-0.893-1.495-0.595-2.785-1.457-3.861-2.586-1.082-1.125-1.917-2.492-2.513-4.104-0.599-1.61-0.893-3.431-0.893-5.458 0-1.902 0.246-3.649 0.747-5.242 0.498-1.594 1.232-2.971 2.195-4.131 0.968-1.158 2.15-2.06 3.553-2.704 1.399-0.644 3.002-0.968 4.808-0.968 1.642 0 3.066 0.234 4.273 0.7 1.21 0.468 2.085 0.912 2.634 1.329v-13.43l3.139-0.58zm-3.139-19.663c-0.289-0.226-0.651-0.468-1.087-0.726-0.435-0.257-0.94-0.5-1.522-0.727-0.579-0.223-1.208-0.408-1.885-0.554-0.676-0.146-1.385-0.22-2.125-0.22-1.547 0-2.84 0.276-3.887 0.823-1.048 0.548-1.894 1.28-2.538 2.199-0.644 0.917-1.109 1.996-1.402 3.235-0.288 1.24-0.432 2.553-0.432 3.938 0 3.284 0.82 5.804 2.463 7.559 1.642 1.756 3.818 2.635 6.521 2.635 1.546 0 2.792-0.075 3.743-0.219 0.949-0.145 1.668-0.298 2.15-0.459v-17.484z"/>
    <path d="m809.96 516.78c1.803 0 3.293-0.298 4.469-0.893 1.176-0.596 1.761-1.603 1.761-3.02 0-0.678-0.101-1.258-0.312-1.739-0.209-0.484-0.556-0.92-1.039-1.305-0.479-0.387-1.118-0.756-1.905-1.11-0.79-0.354-1.766-0.773-2.925-1.258-0.937-0.386-1.819-0.779-2.657-1.182s-1.578-0.871-2.222-1.4c-0.644-0.531-1.158-1.17-1.544-1.909-0.387-0.742-0.583-1.643-0.583-2.706 0-2.029 0.767-3.671 2.298-4.926 1.527-1.259 3.63-1.885 6.303-1.885 1.707 0 3.116 0.144 4.227 0.433 1.111 0.292 1.891 0.55 2.344 0.773l-0.725 2.803c-0.388-0.192-1.039-0.452-1.958-0.773-0.917-0.321-2.264-0.481-4.034-0.481-0.706 0-1.376 0.07-2.003 0.217-0.628 0.146-1.186 0.371-1.668 0.678-0.482 0.308-0.869 0.693-1.158 1.161-0.288 0.468-0.435 1.041-0.435 1.718 0 0.68 0.127 1.26 0.384 1.744 0.258 0.483 0.638 0.91 1.136 1.283 0.5 0.371 1.113 0.716 1.837 1.037 0.725 0.321 1.554 0.673 2.488 1.058 0.966 0.387 1.891 0.776 2.777 1.18 0.888 0.399 1.668 0.882 2.344 1.446 0.675 0.563 1.224 1.24 1.64 2.028 0.423 0.788 0.63 1.779 0.63 2.971 0 2.255-0.847 3.963-2.536 5.119-1.69 1.161-4.001 1.739-6.932 1.739-2.19 0-3.865-0.186-5.025-0.555-1.157-0.369-1.933-0.651-2.318-0.846l0.82-2.849c0.098 0.062 0.308 0.167 0.628 0.313 0.322 0.145 0.759 0.306 1.307 0.482 0.545 0.177 1.199 0.33 1.956 0.459 0.756 0.132 1.634 0.195 2.63 0.195z"/>
   </g>
  </g>
 </g>
</svg>
