<?xml version="1.0" encoding="UTF-8"?>
<svg width="270" height="53" version="1.1" viewBox="0 0 71.438 14.023" xmlns="http://www.w3.org/2000/svg" xmlns:cc="http://creativecommons.org/ns#" xmlns:dc="http://purl.org/dc/elements/1.1/" xmlns:rdf="http://www.w3.org/1999/02/22-rdf-syntax-ns#">
 <metadata>
  <rdf:RDF>
   <cc:Work rdf:about="">
    <dc:format>image/svg+xml</dc:format>
    <dc:type rdf:resource="http://purl.org/dc/dcmitype/StillImage"/>
   </cc:Work>
  </rdf:RDF>
 </metadata>
 <g transform="translate(0 -282.98)">
  <g transform="scale(.93267 1.0722)" stroke-width=".2407" aria-label="opportunitake">
   <path d="m7.2806 271.05q0 0.59692-0.1733 1.0783t-0.49102 0.828q-0.30809 0.3466-0.74134 0.53915-0.43325 0.18293-0.94353 0.18293t-0.94353-0.18293q-0.43325-0.19255-0.75097-0.53915-0.30809-0.34661-0.48139-0.828t-0.1733-1.0783q0-0.5873 0.1733-1.0687 0.1733-0.49102 0.48139-0.83762 0.31772-0.3466 0.75097-0.52953 0.43325-0.19255 0.94353-0.19255t0.94353 0.19255q0.43325 0.18293 0.74134 0.52953 0.31772 0.3466 0.49102 0.83762 0.1733 0.48139 0.1733 1.0687zm-0.9339 0q0-0.84725-0.38511-1.3383-0.37548-0.50064-1.0302-0.50064-0.65469 0-1.0398 0.50064-0.37548 0.49102-0.37548 1.3383t0.37548 1.3479q0.38511 0.49102 1.0398 0.49102 0.65469 0 1.0302-0.49102 0.38511-0.50064 0.38511-1.3479z" fill="#4285f4"/>
   <path d="m12.017 271.06q0-0.87613-0.43325-1.3479-0.43325-0.47176-1.1553-0.47176-0.40437 0-0.63544 0.0289-0.22144 0.0289-0.35623 0.0674v3.1579q0.16367 0.13479 0.47176 0.25995 0.30809 0.12516 0.67395 0.12516 0.38511 0 0.65469-0.13479 0.27921-0.14441 0.45251-0.38511 0.1733-0.25032 0.25032-0.57767 0.07702-0.33697 0.07702-0.72208zm0.9339 0q0 0.56804-0.15404 1.0494-0.14442 0.48139-0.43325 0.82799-0.28883 0.3466-0.71246 0.53916-0.414 0.19255-0.95315 0.19255-0.43325 0-0.77022-0.11553-0.32735-0.11553-0.49102-0.22144v2.0026h-0.89539v-6.6336q0.31772-0.077 0.78948-0.16367 0.48139-0.0963 1.1072-0.0963 0.57767 0 1.0398 0.18293t0.78948 0.5199q0.32735 0.33698 0.50065 0.82799 0.18293 0.4814 0.18293 1.088z" fill="#db4437"/>
   <path d="m17.688 271.06q0-0.87613-0.43325-1.3479-0.43325-0.47176-1.1553-0.47176-0.40437 0-0.63544 0.0289-0.22144 0.0289-0.35623 0.0674v3.1579q0.16367 0.13479 0.47176 0.25995t0.67395 0.12516q0.38511 0 0.65469-0.13479 0.27921-0.14441 0.45251-0.38511 0.1733-0.25032 0.25032-0.57767 0.07702-0.33697 0.07702-0.72208zm0.9339 0q0 0.56804-0.15404 1.0494-0.14442 0.48139-0.43325 0.82799-0.28883 0.3466-0.71246 0.53916-0.414 0.19255-0.95315 0.19255-0.43325 0-0.77022-0.11553-0.32735-0.11553-0.49102-0.22144v2.0026h-0.89539v-6.6336q0.31772-0.077 0.78948-0.16367 0.48139-0.0963 1.1072-0.0963 0.57767 0 1.0398 0.18293t0.78948 0.5199q0.32735 0.33698 0.50065 0.82799 0.18293 0.4814 0.18293 1.088z" fill="#f4b400"/>
   <path d="m24.302 271.05q0 0.59692-0.1733 1.0783-0.1733 0.48139-0.49102 0.828-0.30809 0.3466-0.74134 0.53915-0.43325 0.18293-0.94352 0.18293t-0.94352-0.18293q-0.43325-0.19255-0.75097-0.53915-0.30809-0.34661-0.48139-0.828t-0.1733-1.0783q0-0.5873 0.1733-1.0687 0.1733-0.49102 0.48139-0.83762 0.31772-0.3466 0.75097-0.52953 0.43325-0.19255 0.94352-0.19255t0.94352 0.19255q0.43325 0.18293 0.74134 0.52953 0.31772 0.3466 0.49102 0.83762 0.1733 0.48139 0.1733 1.0687zm-0.9339 0q0-0.84725-0.38511-1.3383-0.37548-0.50064-1.0302-0.50064t-1.0398 0.50064q-0.37548 0.49102-0.37548 1.3383t0.37548 1.3479q0.38511 0.49102 1.0398 0.49102t1.0302-0.49102q0.38511-0.50064 0.38511-1.3479z" fill="#4285f4"/>
   <path d="m27.412 268.44q0.11553 0 0.25995 0.0193 0.15404 0.01 0.29846 0.0385 0.14442 0.0193 0.25995 0.0481 0.12516 0.0192 0.18293 0.0385l-0.15404 0.77985q-0.10591-0.0385-0.35623-0.0867-0.2407-0.0578-0.62581-0.0578-0.25032 0-0.50065 0.0578-0.2407 0.0481-0.31772 0.0674v4.2074h-0.89539v-4.7946q0.31772-0.11553 0.78948-0.21181 0.47176-0.10591 1.0591-0.10591z" fill="#0f9d58"/>
   <path d="m30.118 268.55h1.8967v0.75097h-1.8967v2.3107q0 0.37549 0.05777 0.62581 0.05777 0.2407 0.1733 0.38511 0.11553 0.13479 0.28883 0.19256 0.1733 0.0578 0.40437 0.0578 0.40437 0 0.64506-0.0867 0.25032-0.0963 0.3466-0.13478l0.1733 0.74134q-0.13479 0.0674-0.47176 0.16367-0.33697 0.10591-0.77022 0.10591-0.51027 0-0.84725-0.12517-0.32734-0.13479-0.52953-0.39474t-0.28884-0.63543q-0.07702-0.38511-0.07702-0.88576v-4.4673l0.89539-0.15405z" fill="#db4437"/>
   <path d="m37.136 273.41q-0.30809 0.077-0.81836 0.16368-0.50065 0.0867-1.165 0.0867-0.57767 0-0.97241-0.16368-0.39474-0.1733-0.63544-0.48139t-0.3466-0.72208q-0.10591-0.42363-0.10591-0.9339v-2.8113h0.89539v2.6188q0 0.91464 0.28884 1.3094 0.28883 0.39474 0.97241 0.39474 0.14442 0 0.29846-0.01t0.28884-0.0193q0.13479-0.0192 0.2407-0.0289 0.11553-0.0193 0.16367-0.0385v-4.2266h0.89539z" fill="#f4b400"/>
   <path d="m38.677 268.69q0.30809-0.077 0.81836-0.16368 0.51027-0.0866 1.1746-0.0866 0.59692 0 0.99166 0.1733 0.39474 0.16368 0.62581 0.47177 0.2407 0.29846 0.33697 0.72208 0.09628 0.42363 0.09628 0.9339v2.8113h-0.89539v-2.6188q0-0.46214-0.06739-0.78948-0.05777-0.32735-0.20218-0.52953-0.14442-0.20219-0.38511-0.28884-0.2407-0.0963-0.59692-0.0963-0.14442 0-0.29846 0.01t-0.29846 0.0289q-0.13479 0.01-0.25032 0.0289-0.10591 0.0192-0.15404 0.0289v4.2266h-0.89539z" fill="#fc5757"/>
   <path d="m45.099 273.55h-0.89539v-5.0065h0.89539zm-0.45251-5.9115q-0.2407 0-0.414-0.15404-0.16367-0.16367-0.16367-0.43325t0.16367-0.42363q0.1733-0.16367 0.414-0.16367 0.2407 0 0.40437 0.16367 0.1733 0.15405 0.1733 0.42363t-0.1733 0.43325q-0.16367 0.15404-0.40437 0.15404z" fill="#fc5757"/>
   <path d="m47.477 268.55h1.8967v0.75097h-1.8967v2.3107q0 0.37549 0.05777 0.62581 0.05777 0.2407 0.1733 0.38511 0.11553 0.13479 0.28883 0.19256 0.1733 0.0578 0.40437 0.0578 0.40437 0 0.64506-0.0867 0.25032-0.0963 0.3466-0.13478l0.1733 0.74134q-0.13479 0.0674-0.47176 0.16367-0.33697 0.10591-0.77022 0.10591-0.51027 0-0.84725-0.12517-0.32734-0.13479-0.52953-0.39474t-0.28884-0.63543q-0.07702-0.38511-0.07702-0.88576v-4.4673l0.89539-0.15405z" fill="#4285f4"/>
   <path d="m52.204 272.91q0.31772 0 0.55841-0.01 0.25032-0.0193 0.414-0.0578v-1.4923q-0.09628-0.0481-0.31772-0.077-0.21181-0.0385-0.5199-0.0385-0.20218 0-0.43325 0.0289-0.22144 0.0289-0.414 0.12516-0.18293 0.0867-0.30809 0.25033-0.12516 0.15404-0.12516 0.41399 0 0.48139 0.30809 0.67395 0.30809 0.18293 0.83762 0.18293zm-0.07702-4.4866q0.53916 0 0.90501 0.14441 0.37548 0.13479 0.59692 0.39474 0.23107 0.25033 0.32735 0.60656 0.09628 0.3466 0.09628 0.77022v3.129q-0.11553 0.0193-0.32735 0.0578-0.20218 0.0289-0.46214 0.0578-0.25995 0.0289-0.56804 0.0481-0.29846 0.0289-0.59692 0.0289-0.42362 0-0.77985-0.0867t-0.61618-0.26958q-0.25995-0.19256-0.40437-0.50065t-0.14442-0.74134q0-0.414 0.16367-0.71246 0.1733-0.29846 0.46214-0.48139 0.28883-0.18293 0.67395-0.26958 0.38511-0.0867 0.80874-0.0867 0.13479 0 0.27921 0.0193 0.14442 0.01 0.26958 0.0385 0.13479 0.0192 0.23107 0.0385 0.09628 0.0193 0.13479 0.0289v-0.25032q0-0.22144-0.04814-0.43325-0.04814-0.22144-0.1733-0.38511-0.12516-0.1733-0.3466-0.26958-0.21181-0.10591-0.55841-0.10591-0.44288 0-0.77985 0.0674-0.32735 0.0578-0.49102 0.12516l-0.10591-0.74134q0.1733-0.077 0.57767-0.14442 0.40437-0.077 0.87613-0.077z" fill="#f4b400"/>
   <path d="m57.345 270.8q0.28883 0.22144 0.60655 0.54878 0.32735 0.32735 0.63544 0.71246 0.31772 0.37548 0.59692 0.77022 0.27921 0.38512 0.47176 0.72209h-1.0494q-0.20218-0.33697-0.47176-0.68357-0.25995-0.35623-0.54879-0.67395-0.28883-0.32735-0.5873-0.59693-0.29846-0.26957-0.56804-0.4525v2.407h-0.89539v-7.3171l0.89539-0.15404v4.5636q0.23107-0.23107 0.51027-0.51027 0.27921-0.27921 0.54878-0.56804 0.26958-0.28884 0.51027-0.54879 0.2407-0.26958 0.414-0.47176h1.0494q-0.22144 0.24069-0.48139 0.52953-0.25995 0.28883-0.53916 0.58729-0.27921 0.28884-0.56804 0.5873-0.27921 0.28884-0.52953 0.54879z" fill="#fc5757"/>
   <path d="m60.282 271.06q0-0.66432 0.19256-1.1553 0.19256-0.50065 0.51027-0.82799 0.31772-0.32735 0.73171-0.49102t0.84725-0.16367q1.0109 0 1.5501 0.63543 0.53916 0.62581 0.53916 1.9159 0 0.0578 0 0.15404 0 0.0867-0.0096 0.16367h-3.4275q0.05777 0.77986 0.45251 1.1842 0.39474 0.40436 1.2324 0.40436 0.47176 0 0.78948-0.077 0.32735-0.0867 0.49102-0.16367l0.12516 0.75097q-0.16367 0.0867-0.57767 0.18293-0.40437 0.0963-0.92427 0.0963-0.65469 0-1.1361-0.19255-0.47176-0.20219-0.77985-0.54879-0.30809-0.3466-0.46214-0.81836-0.14442-0.48139-0.14442-1.0494zm3.4371-0.49102q0.0096-0.60655-0.30809-0.99167-0.30809-0.39474-0.85688-0.39474-0.30809 0-0.54879 0.12517-0.23107 0.11553-0.39474 0.30809-0.16367 0.19255-0.25995 0.44287-0.08665 0.25033-0.11553 0.51028z" fill="#db4437"/>
  </g>
 </g>
</svg>
