<?xml version="1.0" encoding="UTF-8"?>
<svg width="51.729mm" height="10.988mm" version="1.1" viewBox="0 0 51.729 10.988" xmlns="http://www.w3.org/2000/svg" xmlns:cc="http://creativecommons.org/ns#" xmlns:dc="http://purl.org/dc/elements/1.1/" xmlns:rdf="http://www.w3.org/1999/02/22-rdf-syntax-ns#">
 <metadata>
  <rdf:RDF>
   <cc:Work rdf:about="">
    <dc:format>image/svg+xml</dc:format>
    <dc:type rdf:resource="http://purl.org/dc/dcmitype/StillImage"/>
   </cc:Work>
  </rdf:RDF>
 </metadata>
 <g transform="translate(-2.3537 -285.36)">
  <path transform="matrix(.26458 0 0 .26458 2.3537 285.36)" d="m133.28 0c-0.33143 0-0.69603 0.12002-1.0938 0.36133-0.38666 0.24131-0.72252 0.55258-1.0098 0.93359-0.19886 0.27941-0.29883 0.6668-0.29883 1.1621v2.7637c0 0.54611 0.19341 0.81836 0.58008 0.81836 0.33143 0 0.69146-0.11514 1.0781-0.34375 0.39772-0.24131 0.74011-0.55258 1.0274-0.93359 0.19885-0.30481 0.29687-0.69707 0.29687-1.1797v-2.7637c0-0.54611-0.19341-0.81836-0.58008-0.81836zm37.004 0.76172c-0.50819 0-1.0375 0.22833-1.5898 0.68555-0.54134 0.45721-0.8125 1.029-0.8125 1.7148v26.232c0 0.54612 0.19341 0.82031 0.58007 0.82031 0.51924 0 1.0505-0.22346 1.5918-0.66797 0.54133-0.45721 0.81055-1.0339 0.81055-1.7324v-26.232c0-0.54611-0.19341-0.82031-0.58008-0.82031zm-83.27 5.4688c-0.51924 0-1.0505 0.22833-1.5918 0.68555-0.54133 0.44451-0.8125 1.0163-0.8125 1.7148v3.5996c0 0.39371 0.07775 0.66108 0.23242 0.80078 0.15467 0.1397 0.37029 0.20898 0.64648 0.20898h4.4414c0.91695 0 1.5527-0.07611 1.9062-0.22852 0.36457-0.1524 0.72722-0.45685 1.0918-0.91406 0.37562-0.45721 0.56445-0.83972 0.56445-1.1445 0-0.29211-0.19341-0.4375-0.58008-0.4375h-4.4414c-0.27619 0-0.49182-0.06928-0.64648-0.20898s-0.23242-0.40707-0.23242-0.80078v-2.457c0-0.54611-0.19146-0.81836-0.57812-0.81836zm54.883 0c-0.51924 0-1.0485 0.22833-1.5898 0.68555-0.54134 0.44451-0.8125 1.0163-0.8125 1.7148v3.5996c0 0.39371 0.0777 0.66108 0.23242 0.80078 0.15467 0.1397 0.37029 0.20898 0.64648 0.20898h4.4414c0.91695 0 1.5508-0.07611 1.9043-0.22852 0.36457-0.1524 0.72917-0.45685 1.0938-0.91406 0.37562-0.45721 0.56445-0.83972 0.56445-1.1445 0-0.29211-0.19341-0.4375-0.58008-0.4375h-4.4414c-0.2762 0-0.49182-0.06928-0.64649-0.20898s-0.23242-0.40707-0.23242-0.80078v-2.457c0-0.54611-0.19341-0.81836-0.58008-0.81836zm-134.74 3.6953c-2.3863 0-4.3851 1.1875-5.998 3.5625-0.088381 0.127-0.19946 0.32314-0.33203 0.58984-0.12152 0.26671-0.18164 0.46967-0.18164 0.60938-1e-8 0.21591 0.077755 0.32422 0.23242 0.32422 0.04419 0 0.09973-0.01854 0.16602-0.05664 0.066286-0.0381 0.1264-0.08201 0.18164-0.13281 0.066286-0.0508 0.15515-0.1152 0.26562-0.19141 0.11048-0.0889 0.19281-0.15818 0.24805-0.20898 1.4804-1.1684 2.9166-1.7539 4.3086-1.7539 1.0053 0 1.8548 0.21663 2.5508 0.64844 0.696 0.41911 1.2383 1.0417 1.625 1.8672 0.39772 0.82552 0.67999 1.7711 0.8457 2.8379 0.17676 1.0541 0.26367 2.2992 0.26367 3.7344 0 2.6036-0.22478 4.6166-0.67773 6.0391-0.09943 0.34291-0.21704 0.64736-0.34961 0.91406-0.13257 0.25401-0.23712 0.44526-0.31445 0.57227-0.077333 0.127-0.11523 0.22848-0.11523 0.30469 0 0.24131 0.11566 0.36133 0.34766 0.36133 0.37562 0 0.86699-0.33665 1.4746-1.0098 0.60762-0.67312 1.1212-1.4918 1.541-2.457 0.38667-0.91442 0.69116-1.9566 0.91211-3.125 0.232-1.1811 0.34766-2.2857 0.34766-3.3145 0-3.3275-0.59592-5.8411-1.7891-7.543-1.1821-1.7145-3.0339-2.5723-5.5527-2.5723zm13.34 0c-0.45295 0-0.96654 0.22833-1.541 0.68555-0.57448 0.44451-0.86133 0.99096-0.86133 1.6387v3.1992c0 0.40641 0.11108 0.61133 0.33203 0.61133 0.19886 0 0.4746-0.15905 0.82812-0.47656 1.2705-1.1049 2.2597-1.868 2.9668-2.2871 0.7181-0.41911 1.5251-0.62891 2.4199-0.62891 0.65181 0 1.219 0.14051 1.7051 0.41992 0.49714 0.27941 0.90618 0.67363 1.2266 1.1816 0.32038 0.49531 0.58044 1.1296 0.7793 1.9043 0.19886 0.76202 0.33673 1.5944 0.41406 2.4961 0.08838 0.90172 0.13281 1.9302 0.13281 3.0859 0 2.6671-0.2091 4.6801-0.62891 6.0391-0.11048 0.34291-0.23266 0.64736-0.36523 0.91406s-0.23712 0.46284-0.31445 0.58984c-0.06629 0.1143-0.09961 0.21091-0.09961 0.28711-1e-6 0.24131 0.11566 0.36133 0.34766 0.36133 0.37562 0 0.86241-0.32982 1.459-0.99024 0.60762-0.66042 1.1147-1.4742 1.5234-2.4395 0.38667-0.90172 0.69116-1.9809 0.91211-3.2383s0.33203-2.5073 0.33203-3.752c0-3.2894-0.54233-5.7084-1.625-7.2578-1.0827-1.5621-2.6077-2.3437-4.5742-2.3437-1.3147 1e-7 -2.6065 0.53278-3.877 1.5996-0.28724 0.25401-0.50286 0.38086-0.64648 0.38086-0.17676 0-0.26562-0.22834-0.26562-0.68555v-0.47656c0-0.54612-0.19341-0.81836-0.58008-0.81836zm17.617 0c-0.45295 0-0.96849 0.22833-1.543 0.68555-0.57448 0.44451-0.86133 0.99096-0.86133 1.6387v3.1992c0 0.40641 0.11108 0.61133 0.33203 0.61133 0.19886 0 0.4746-0.15905 0.82812-0.47656 1.2705-1.1049 2.2597-1.868 2.9668-2.2871 0.7181-0.41911 1.5251-0.62891 2.4199-0.62891 0.65181 0 1.2209 0.14051 1.707 0.41992 0.49714 0.27941 0.90423 0.67363 1.2246 1.1816 0.32038 0.49531 0.58044 1.1296 0.7793 1.9043 0.19886 0.76202 0.33673 1.5944 0.41406 2.4961 0.08838 0.90172 0.13281 1.9302 0.13281 3.0859 0 2.6671-0.2091 4.6801-0.62891 6.0391-0.11048 0.34291-0.23266 0.64736-0.36524 0.91406-0.13257 0.26671-0.23712 0.46284-0.31445 0.58984-0.06629 0.1143-0.09961 0.21091-0.09961 0.28711 0 0.24131 0.11566 0.36133 0.34766 0.36133 0.37562 0 0.86241-0.32982 1.459-0.99024 0.60762-0.66042 1.1147-1.4742 1.5234-2.4395 0.38667-0.90172 0.69116-1.9809 0.91211-3.2383 0.22095-1.2573 0.33203-2.5073 0.33203-3.752 0-3.2894-0.54233-5.7084-1.625-7.2578-1.0827-1.5621-2.6058-2.3437-4.5723-2.3437-1.3147 1e-7 -2.6084 0.53278-3.8789 1.5996-0.28724 0.25401-0.50286 0.38086-0.64648 0.38086-0.17676 0-0.26562-0.22834-0.26562-0.68555v-0.47656c0-0.54612-0.19146-0.81836-0.57812-0.81836zm21.824 0c-2.3863 0-4.387 1.1875-6 3.5625-0.08838 0.127-0.19751 0.32314-0.33008 0.58984-0.12152 0.26671-0.18359 0.46967-0.18359 0.60938 0 0.21591 0.07775 0.32422 0.23242 0.32422 0.04419 0 0.09973-0.01854 0.16602-0.05664 0.06629-0.0381 0.1264-0.08201 0.18164-0.13281 0.06629-0.0508 0.15515-0.1152 0.26562-0.19141 0.11048-0.0889 0.19281-0.15818 0.24805-0.20898 1.4804-1.1684 2.9166-1.7539 4.3086-1.7539 1.0053 0 1.8567 0.21663 2.5527 0.64844 0.696 0.41911 1.2364 1.0417 1.623 1.8672 0.39772 0.82552 0.67999 1.7711 0.8457 2.8379 0.17676 1.0541 0.26562 2.2992 0.26562 3.7344 0 2.6036-0.22673 4.6166-0.67969 6.0391-0.09943 0.34291-0.21508 0.64736-0.34766 0.91406-0.13257 0.25401-0.23712 0.44526-0.31445 0.57227-0.07733 0.127-0.11719 0.22848-0.11719 0.30469 0 0.24131 0.11566 0.36133 0.34766 0.36133 0.37562 0 0.86699-0.33665 1.4746-1.0098 0.60762-0.67312 1.1232-1.4918 1.543-2.457 0.38667-0.91442 0.6892-1.9566 0.91016-3.125 0.232-1.1811 0.34766-2.2857 0.34766-3.3145 0-3.3275-0.59592-5.8411-1.7891-7.543-1.1821-1.7145-3.0319-2.5723-5.5508-2.5723zm13.34 0c-0.50819 0-1.0394 0.22833-1.5918 0.68555-0.54133 0.45721-0.81055 1.029-0.81055 1.7148v3.6953c0 0.46991 0.12023 0.70508 0.36328 0.70508 0.16572 0 0.37023-0.12002 0.61328-0.36133 0.27619-0.27941 0.65844-0.68046 1.1445-1.2012 0.49714-0.53341 0.84411-0.89543 1.043-1.0859 0.2099-0.2032 0.47454-0.43837 0.79492-0.70508 0.32038-0.27941 0.60266-0.46383 0.8457-0.55274 0.24305-0.1016 0.49658-0.15234 0.76172-0.15234 0.41981 0 0.88439 0.14051 1.3926 0.41992 0.54133 0.31751 0.96148 0.47656 1.2598 0.47656 0.35352 0 0.76256-0.21663 1.2266-0.64844 0.464-0.44451 0.69531-0.86898 0.69531-1.2754 0-0.50801-0.34697-0.92077-1.043-1.2383-0.68495-0.31751-1.3429-0.47656-1.9727-0.47656-1.0385 0-2.1499 0.67817-3.332 2.0371-0.26514 0.30481-0.4566 0.45898-0.57812 0.45898-0.15467 0-0.23242-0.20492-0.23242-0.61133v-1.0664c0-0.54612-0.19341-0.81836-0.58008-0.81836zm25.338 0c-0.24305 0-0.50964 0.06245-0.79688 0.18945-0.27619 0.1143-0.5343 0.28019-0.77734 0.49609-0.232 0.21591-0.43194 0.47644-0.59766 0.78125-0.15467 0.29211-0.23242 0.61022-0.23242 0.95312v10.344c0 1.4732 0.09997 2.7115 0.29883 3.7148 0.19886 1.0033 0.50792 1.822 0.92773 2.457 0.41981 0.62232 0.96214 1.0673 1.625 1.334 0.6739 0.27941 1.4743 0.41797 2.4023 0.41797 0.34247 0 0.75609-0.05562 1.2422-0.16992 0.49715-0.1143 0.97283-0.2919 1.4258-0.5332 0.45295-0.24131 0.83977-0.54771 1.1602-0.91602 0.32038-0.38101 0.48047-0.83768 0.48047-1.3711 0-0.29211-0.0222-0.48141-0.0664-0.57031-0.0331-0.0889-0.0998-0.13476-0.19921-0.13476-0.0663 0-0.20416 0.07123-0.41407 0.21094-0.75124 0.49531-1.585 0.74219-2.502 0.74219-0.57448 0-1.0658-0.07611-1.4746-0.22852-0.39771-0.1524-0.729-0.38757-0.99414-0.70508-0.26514-0.33021-0.46508-0.7498-0.59766-1.2578-0.13257-0.52071-0.21948-1.1433-0.26367-1.8672l-0.06641-1.4668v-11.602c0-0.54612-0.19341-0.81836-0.58008-0.81836zm10.406 0c-0.49715 0-1.0218 0.23517-1.5742 0.70508-0.55238 0.46991-0.82813 1.0349-0.82813 1.6953v17.068c0 0.54612 0.19341 0.82031 0.58008 0.82031 0.50819 0 1.0329-0.22834 1.5742-0.68555 0.55238-0.45721 0.82813-1.029 0.82813-1.7148v-17.07c0-0.54612-0.19342-0.81836-0.58008-0.81836zm7.0918 0c-0.50819 0-1.0375 0.24004-1.5898 0.72266-0.54133 0.46991-0.8125 1.0486-0.8125 1.7344v3.0293c0 0.43181 0.11108 0.64844 0.33203 0.64844 0.19886 0 0.4746-0.15905 0.82813-0.47656 2.2095-1.9432 3.9502-2.916 5.2207-2.916 0.62971 0 1.1701 0.08294 1.623 0.24805 0.45295 0.1651 0.81756 0.46467 1.0938 0.89648 0.28724 0.43181 0.51397 0.85628 0.67968 1.2754 0.16572 0.40641 0.28137 1.0358 0.34766 1.8867 0.0773 0.85092 0.12177 1.5798 0.13281 2.1895 0.0221 0.60962 0.0332 1.5112 0.0332 2.7051v7.5254c0 0.54612 0.19341 0.82031 0.58007 0.82031 0.51924 0 1.0505-0.23517 1.5918-0.70508 0.54133-0.48261 0.81055-1.0681 0.81055-1.7539v-9.7539c0-2.9084-0.44694-4.9771-1.3418-6.209-0.89486-1.2446-2.3043-1.8672-4.2266-1.8672-0.54133 0-1.1529 0.13856-1.8379 0.41797-0.68495 0.26671-1.3429 0.66776-1.9727 1.2012-0.27619 0.24131-0.49182 0.36133-0.64648 0.36133-0.17676 0-0.26563-0.22834-0.26563-0.68555v-0.47656c0-0.54612-0.19341-0.81836-0.58008-0.81836zm17.168 0c-0.33143 0-0.69603 0.12002-1.0938 0.36133-0.38666 0.24131-0.72252 0.55258-1.0098 0.93359-0.19886 0.29211-0.29883 0.6795-0.29883 1.1621v17.012c0 0.54612 0.19341 0.82031 0.58008 0.82031 0.33143 0 0.69146-0.11514 1.0781-0.34375 0.39772-0.24131 0.74011-0.55258 1.0274-0.93359 0.19885-0.30481 0.29687-0.69903 0.29687-1.1816v-17.012c0-0.54612-0.19341-0.81836-0.58008-0.81836zm24.561 0c-2.2979 1e-7 -4.1987 1.0539-5.7012 3.1621-0.34248 0.48261-0.51367 0.9022-0.51367 1.2578 0 0.2032 0.0823 0.30469 0.24804 0.30469 0.14362 0 0.45922-0.18442 0.94532-0.55274 1.2263-0.95252 2.5893-1.4297 4.0918-1.4297 2.5852 0 3.8789 1.8745 3.8789 5.6211v11.105c0 0.54612 0.19341 0.82031 0.58008 0.82031 0.2099 0 0.45232-0.0644 0.72851-0.19141 0.28724-0.1143 0.55188-0.27336 0.79492-0.47656 0.2541-0.21591 0.46515-0.46278 0.63086-0.74219 0.17677-0.27941 0.26563-0.57898 0.26563-0.89648v-10.324c0-1.3716-0.13983-2.5406-0.41602-3.5059-0.26514-0.97793-0.65001-1.7712-1.1582-2.3809-0.50819-0.62232-1.1329-1.0741-1.873-1.3535s-1.574-0.41797-2.502-0.41797zm32.23 0c-0.61867 0-1.2433 0.094651-1.873 0.28516-0.62971 0.1905-1.3256 0.56618-2.0879 1.125-0.76228 0.55881-1.4405 1.276-2.0371 2.1523-0.32038 0.45721-0.48047 0.8446-0.48047 1.1621 0 0.24131 0.0934 0.36133 0.28125 0.36133 0.11048 0 0.38165-0.18442 0.8125-0.55274 1.4472-1.1938 2.9926-1.791 4.6387-1.791 1.0495 0 1.8121 0.242 2.2871 0.72461 0.47505 0.46991 0.71289 1.0993 0.71289 1.8867 1e-5 0.45721-0.0823 0.87485-0.24804 1.2559-0.15467 0.38101-0.41473 0.74303-0.7793 1.0859s-0.88926 0.61028-1.5742 0.80078c-0.68495 0.1905-1.5076 0.28516-2.4688 0.28516-0.37562 0-0.66247-0.04391-0.86133-0.13281-0.18781-0.1016-0.2832-0.32994-0.2832-0.68555 0-0.2032 0.0555-0.59742 0.16602-1.1816 0.11047-0.59692 0.16601-0.97064 0.16601-1.123 0-0.38101-0.13329-0.57226-0.39843-0.57226-0.28724 0-0.70544 0.18442-1.2578 0.55273-0.56343 0.38101-1.0234 0.92745-1.377 1.6387-0.35352 0.69852-0.5293 1.7524-0.5293 3.1621 0 0.52071 0.24895 0.79979 0.7461 0.83789 1.0053 0.1016 1.9057 0.15234 2.7012 0.15234 2.8392 0 5.0759-0.53278 6.7109-1.5996 1.6461-1.0795 2.4688-2.6105 2.4688-4.5918 0-0.92712-0.13788-1.7341-0.41407-2.4199-0.27619-0.69852-0.66301-1.243-1.1602-1.6367-0.49715-0.40641-1.0663-0.70598-1.707-0.89648-0.64077-0.19051-1.3589-0.28516-2.1543-0.28516zm-106.69 0.58984c-0.28724 0-0.67406 0.29957-1.1602 0.89648-0.47505 0.59692-0.71094 1.0653-0.71094 1.4082 0 0.27941 0.19341 0.41992 0.58008 0.41992h0.77734c0.34248 0 0.57574-0.08977 0.69726-0.26758 0.12152-0.1778 0.18164-0.42468 0.18164-0.74219v-1.0859c0-0.41911-0.12219-0.62891-0.36523-0.62891zm54.885 0c-0.28723 0-0.67406 0.29957-1.1602 0.89648-0.47505 0.59692-0.71094 1.0653-0.71094 1.4082 0 0.27941 0.19341 0.41992 0.58008 0.41992h0.77734c0.34248 0 0.57574-0.08977 0.69727-0.26758 0.12152-0.1778 0.18164-0.42468 0.18164-0.74219v-1.0859c0-0.41911-0.12219-0.62891-0.36524-0.62891zm41.91 0c-0.88381 0.0127-1.513 0.08198-1.8887 0.20898s-0.79577 0.48902-1.2598 1.0859l-4.8887 6.2676c-0.29828 0.38101-0.44726 0.73132-0.44726 1.0488 0 0.2032 0.0934 0.47057 0.28125 0.80078l5.7012 9.582c0.27619 0.46991 0.5454 0.70508 0.81054 0.70508 0.56343 0 1.0836-0.4635 1.5586-1.3906 0.17676-0.34291 0.26562-0.67468 0.26562-0.99219 0-0.27941-0.1-0.59068-0.29883-0.93359l-4.8398-7.6191c-0.18781-0.27941-0.28125-0.51457-0.28125-0.70508 0-0.22861 0.1333-0.50768 0.39844-0.83789l4.9219-5.8496c0.32038-0.36831 0.48047-0.66592 0.48047-0.89453 0-0.31751-0.17119-0.47656-0.51367-0.47656zm-94.523 3.7148c-0.16571 0-0.33233 0.0322-0.49805 0.0957-0.15467 0.0635-0.28601 0.17182-0.39648 0.32422-0.09943 0.1397-0.15039 0.3495-0.15039 0.62891v7.3711c0 1.4732 0.08429 2.7183 0.25 3.7344 0.16572 1.0033 0.43493 1.822 0.81055 2.457 0.37562 0.62232 0.85588 1.0741 1.4414 1.3535 0.59657 0.27941 1.3212 0.41797 2.1719 0.41797 0.87276 0 1.5954-0.15222 2.1699-0.45703 0.58552-0.29211 1.0566-0.63363 1.4102-1.0273 0.35352-0.40641 0.60052-0.80746 0.74414-1.2012 0.15467-0.40641 0.23242-0.71769 0.23242-0.93359 0-0.1524-0.03332-0.27243-0.09961-0.36133-0.06629-0.1016-0.17083-0.15234-0.31445-0.15234-0.15467 0-0.31018 0.07611-0.46484 0.22852-0.15467 0.1397-0.34612 0.29876-0.57812 0.47656-0.232 0.1651-0.52538 0.32416-0.87891 0.47656-0.34248 0.1397-0.77373 0.20898-1.293 0.20898-0.4419 0-0.82873-0.10148-1.1602-0.30469-0.32038-0.2032-0.59155-0.53985-0.8125-1.0098-0.2099-0.46991-0.36999-1.0788-0.48047-1.8281-0.11048-0.76202-0.16602-1.691-0.16602-2.7832v-6.666c0-0.24131-0.0379-0.43256-0.11523-0.57227-0.07733-0.1397-0.18188-0.24119-0.31445-0.30469-0.13257-0.0762-0.29266-0.12011-0.48047-0.13281-0.17676-0.0254-0.3656-0.03906-0.56445-0.03906zm54.885 0c-0.16572 0-0.33233 0.0322-0.49805 0.0957-0.15466 0.0635-0.28601 0.17182-0.39648 0.32422-0.0994 0.1397-0.15039 0.3495-0.15039 0.62891v7.3711c0 1.4732 0.0823 2.7183 0.24804 3.7344 0.16572 1.0033 0.43688 1.822 0.8125 2.457 0.37562 0.62232 0.85589 1.0741 1.4414 1.3535 0.59657 0.27941 1.3212 0.41797 2.1719 0.41797 0.87276 0 1.5954-0.15222 2.1699-0.45703 0.58552-0.29211 1.0547-0.63363 1.4082-1.0273 0.35352-0.40641 0.60247-0.80746 0.74609-1.2012 0.15467-0.40641 0.23243-0.71769 0.23243-0.93359 0-0.1524-0.0333-0.27243-0.0996-0.36133-0.0663-0.1016-0.17084-0.15234-0.31446-0.15234-0.15466 0-0.31017 0.07611-0.46484 0.22852-0.15467 0.1397-0.34808 0.29876-0.58008 0.47656-0.232 0.1651-0.52343 0.32416-0.87695 0.47656-0.34248 0.1397-0.77373 0.20898-1.293 0.20898-0.44191 0-0.82873-0.10148-1.1602-0.30469-0.32038-0.2032-0.59154-0.53985-0.8125-1.0098-0.2099-0.46991-0.36999-1.0788-0.48047-1.8281-0.11047-0.76202-0.16601-1.691-0.16601-2.7832v-6.666c0-0.24131-0.0379-0.43256-0.11524-0.57227-0.0773-0.1397-0.18188-0.24119-0.31445-0.30469-0.13257-0.0762-0.29266-0.12011-0.48047-0.13281-0.17676-0.0254-0.36559-0.03906-0.56445-0.03906zm-137.49 0.78125c-0.36457 0-0.80693 0.19126-1.3262 0.57226-0.50819 0.38101-0.87737 0.79865-1.1094 1.2559-0.18781 0.38101-0.33679 0.93428-0.44727 1.6582-0.11048 0.71122-0.16602 1.3913-0.16602 2.0391 0 1.1557 0.044432 2.191 0.13281 3.1055s0.25958 1.8209 0.51367 2.7227c0.26514 0.90172 0.61211 1.6511 1.043 2.248s0.99998 1.0809 1.707 1.4492c0.7181 0.36831 1.5584 0.55078 2.5195 0.55078 1.0385 0 1.9121-0.32299 2.6191-0.9707 0.7181-0.66042 1.0762-1.2761 1.0762-1.8477 0-0.27941-0.11566-0.41992-0.34766-0.41992-0.055238 0-0.28197 0.08294-0.67969 0.24805-0.38667 0.1651-0.84014 0.24805-1.3594 0.24805-0.60762 0-1.1369-0.08977-1.5898-0.26758-0.45295-0.1905-0.82867-0.47641-1.127-0.85742-0.28724-0.38101-0.53161-0.79865-0.73047-1.2559-0.18781-0.45721-0.33026-1.029-0.42969-1.7148-0.088381-0.68582-0.1485-1.3474-0.18164-1.9824-0.033143-0.63502-0.050781-1.3961-0.050781-2.2852 0-0.72392 0.055539-1.5426 0.16602-2.457 0.12152-0.91442 0.18164-1.4033 0.18164-1.4668 0-0.38101-0.13787-0.57226-0.41406-0.57226zm52.781 0c-0.36457 0-0.80693 0.19126-1.3262 0.57226-0.50819 0.38101-0.87933 0.79865-1.1113 1.2559-0.18781 0.38101-0.33679 0.93428-0.44727 1.6582-0.11048 0.71122-0.16602 1.3913-0.16602 2.0391 0 1.1557 0.04443 2.191 0.13281 3.1055 0.08838 0.91442 0.25958 1.8209 0.51367 2.7227 0.26514 0.90172 0.61406 1.6511 1.0449 2.248 0.43086 0.59692 0.99998 1.0809 1.707 1.4492 0.7181 0.36831 1.5564 0.55078 2.5176 0.55078 1.0385 0 1.9121-0.32299 2.6191-0.9707 0.7181-0.66042 1.0762-1.2761 1.0762-1.8477 0-0.27941-0.11566-0.41992-0.34766-0.41992-0.05524 0-0.28197 0.08294-0.67969 0.24805-0.38667 0.1651-0.83818 0.24805-1.3574 0.24805-0.60762 0-1.1388-0.08977-1.5918-0.26758-0.45295-0.1905-0.82867-0.47641-1.127-0.85742-0.28724-0.38101-0.52966-0.79865-0.72852-1.2559-0.18781-0.45721-0.33221-1.029-0.43164-1.7148-0.08838-0.68582-0.1485-1.3474-0.18164-1.9824-0.03314-0.63502-0.05078-1.3961-0.05078-2.2852 0-0.72392 0.05554-1.5426 0.16602-2.457 0.12152-0.91442 0.18359-1.4033 0.18359-1.4668 0-0.38101-0.13787-0.57226-0.41406-0.57226zm60.352 0.97266c-0.232 0-0.55217 0.1571-0.96094 0.47461-0.40876 0.30481-0.76226 0.65512-1.0605 1.0488-0.29829 0.38101-0.44727 0.92745-0.44727 1.6387v10.248c0 0.54612 0.19341 0.82031 0.58008 0.82031 0.50819 0 1.0329-0.23517 1.5742-0.70508 0.55238-0.46991 0.82812-1.0554 0.82812-1.7539v-10.953c0-0.54611-0.17119-0.81836-0.51367-0.81836zm-95.617 0.01758c-0.232 0-0.55218 0.15905-0.96094 0.47656-0.40876 0.30481-0.76226 0.65512-1.0605 1.0488-0.29829 0.38101-0.44727 0.93233-0.44727 1.6562v7.0879c0 0.81282 0.12219 1.4793 0.36524 2 0.24305 0.52071 0.65208 0.97738 1.2266 1.3711 0.93905 0.64772 2.0263 0.9707 3.2637 0.9707 1.1931 0 2.2157-0.31616 3.0664-0.95117 0.85067-0.63502 1.2754-1.2829 1.2754-1.9434 0-0.27941-0.11566-0.41992-0.34766-0.41992-0.01105 0-0.30443 0.0966-0.87891 0.28711-0.56343 0.1905-1.2084 0.28516-1.9375 0.28516-0.85067 0-1.5263-0.19126-2.0234-0.57227-0.68495-0.52071-1.0273-1.4731-1.0273-2.8574v-7.6191c0-0.54612-0.1712-0.82031-0.51367-0.82031zm17.615 0c-0.232 0-0.55218 0.15905-0.96094 0.47656-0.40876 0.30481-0.76226 0.65512-1.0605 1.0488-0.29829 0.38101-0.44727 0.93233-0.44726 1.6562v7.0879c0 0.81282 0.12219 1.4793 0.36523 2 0.24305 0.52071 0.65209 0.97738 1.2266 1.3711 0.93905 0.64772 2.0263 0.9707 3.2637 0.9707 1.1931 0 2.2157-0.31616 3.0664-0.95117 0.85067-0.63502 1.2754-1.2829 1.2754-1.9434 0-0.27941-0.11566-0.41992-0.34766-0.41992-0.01105 0-0.30443 0.0966-0.87891 0.28711-0.56343 0.1905-1.2084 0.28516-1.9375 0.28516-0.85067 0-1.5243-0.19126-2.0215-0.57227-0.68495-0.52071-1.0293-1.4731-1.0293-2.8574v-7.6191c0-0.54612-0.1712-0.82031-0.51367-0.82031zm35.166 0.5918c-0.232 0-0.55218 0.16393-0.96094 0.49414-0.40876 0.31751-0.76226 0.6727-1.0605 1.0664-0.29829 0.38101-0.44727 0.92745-0.44727 1.6387v9.6016c0 0.54612 0.19146 0.82031 0.57812 0.82031 0.51924 0 1.0505-0.22346 1.5918-0.66797 0.54133-0.45721 0.8125-1.0339 0.8125-1.7324v-10.402c0-0.54611-0.1712-0.81836-0.51367-0.81836zm83.686 1.4844c-1.171 0-2.2381 0.29957-3.1992 0.89648-0.95009 0.58422-1.7172 1.4419-2.3027 2.5723-0.22096 0.41911-0.33203 0.8065-0.33203 1.1621 0 0.22861 0.0889 0.3418 0.26562 0.3418 0.13257 0 0.39263-0.17759 0.7793-0.5332 1.2263-1.1303 2.5181-1.6953 3.877-1.6953 0.83962 0 1.7799 0.26054 2.8184 0.78125 0.22095 0.1143 0.39215 0.17188 0.51367 0.17188 0.18781 0 0.31458-0.10831 0.38086-0.32422 0.0773-0.22861 0.11524-0.59746 0.11524-1.1055 0-0.57152-0.0379-0.9589-0.11524-1.1621-0.0773-0.21591-0.22173-0.38667-0.43164-0.51367-0.68495-0.39371-1.4743-0.5918-2.3691-0.5918zm26.779 4.1348c-0.53029 0-0.79493 0.32982-0.79493 0.99023 0 2.1845 0.54692 3.9692 1.6406 5.3535 1.1048 1.3716 2.6501 2.0566 4.6387 2.0566 0.96115 0 1.8504-0.16393 2.668-0.49414 0.82857-0.31751 1.4754-0.69807 1.9394-1.1426 0.47505-0.45721 0.83966-0.89534 1.0938-1.3145 0.2541-0.41911 0.38086-0.76259 0.38086-1.0293 0-0.31751-0.12676-0.47656-0.38086-0.47656-0.12152 0-0.31493 0.08977-0.58007 0.26758-0.2541 0.1778-0.53637 0.37394-0.84571 0.58984-0.29828 0.21591-0.72301 0.41204-1.2754 0.58984-0.55238 0.1778-1.1437 0.26758-1.7734 0.26758-2.5078 0-3.9773-1.5427-4.4082-4.6289-0.0663-0.43181-0.15972-0.71089-0.28125-0.83789-0.11048-0.127-0.30846-0.19141-0.5957-0.19141zm-30.342 0.91406c-0.37562 0-0.81798 0.22834-1.3262 0.68555-0.56343 0.49531-0.8457 1.2145-0.8457 2.1543-1e-5 1.3081 0.38682 2.4127 1.1602 3.3145 0.78438 0.88902 1.9115 1.332 3.3809 1.332 0.62972 0 1.2877-0.1571 1.9727-0.47461 0.68495-0.30481 1.2586-0.69903 1.7226-1.1816 0.28724-0.30481 0.43164-0.74977 0.43164-1.334 0-0.46991-0.0778-0.70508-0.23242-0.70508-0.0994 0-0.24841 0.07123-0.44726 0.21094-0.33143 0.22861-0.73589 0.41108-1.2109 0.55078-0.47505 0.127-0.87756 0.19141-1.209 0.19141-1.1048 0-1.8719-0.32494-2.3027-0.97266-0.43086-0.66042-0.64648-1.7143-0.64648-3.1621 0-0.2032-0.0444-0.35543-0.13282-0.45703-0.0884-0.1016-0.19293-0.15234-0.31445-0.15234zm-134.79 7.1816c-0.38667 0-0.58008 0.28591-0.58008 0.85742v9.5449c0 0.54611 0.19341 0.81836 0.58008 0.81836 0.50819 0 1.0329-0.23321 1.5742-0.70312 0.55238-0.46991 0.82812-1.0554 0.82812-1.7539v-6.0586c0-0.77472-0.1823-1.3192-0.54688-1.6367-0.79543-0.71122-1.4136-1.0684-1.8555-1.0684zm17.615 0c-0.38667 0-0.58008 0.28591-0.58008 0.85742v9.5449c0 0.54611 0.19341 0.81836 0.58008 0.81836 0.50819 0 1.0329-0.23321 1.5742-0.70312 0.55238-0.46991 0.82812-1.0554 0.82812-1.7539v-6.0586c0-0.77472-0.1823-1.3192-0.54688-1.6367-0.79543-0.71122-1.4136-1.0684-1.8555-1.0684z"/>
 </g>
</svg>
